<?xml version="1.0" standalone="no"?>
<!DOCTYPE svg PUBLIC "-//W3C//DTD SVG 20010904//EN"
 "http://www.w3.org/TR/2001/REC-SVG-20010904/DTD/svg10.dtd">
<svg version="1.0" xmlns="http://www.w3.org/2000/svg"
 width="512.000000pt" height="512.000000pt" viewBox="0 0 512.000000 512.000000"
 preserveAspectRatio="xMidYMid meet">
<metadata>
Created by potrace 1.14, written by Peter Selinger 2001-2017
</metadata>
<g transform="translate(0.000000,512.000000) scale(0.100000,-0.100000)"
fill="#000000" stroke="none">
<path d="M0 2560 l0 -2560 2560 0 2560 0 0 2560 0 2560 -2560 0 -2560 0 0
-2560z m1650 1577 c50 -25 94 -81 110 -142 6 -22 21 -64 32 -92 24 -60 40 -65
98 -34 41 21 152 53 265 77 296 60 901 57 1165 -5 245 -58 423 -163 520 -306
54 -81 72 -118 106 -225 32 -102 52 -370 35 -479 -35 -232 -234 -496 -460
-611 -99 -50 -196 -70 -335 -70 -122 0 -513 38 -616 59 -25 6 -63 12 -85 16
-66 9 -274 60 -398 97 -56 17 -61 5 -38 -93 122 -530 130 -571 166 -854 33
-268 35 -478 3 -544 -30 -65 -54 -88 -115 -111 -73 -27 -138 -26 -205 5 -63
29 -77 42 -109 105 -20 40 -23 65 -29 225 -12 286 -67 611 -180 1055 -11 41
-38 152 -60 245 -22 94 -45 188 -50 210 -6 22 -17 76 -25 120 -9 44 -20 96
-26 115 -6 19 -15 145 -19 280 -10 292 -34 464 -84 614 -43 124 -45 169 -11
239 47 100 91 126 210 126 72 0 99 -4 135 -22z"/>
<path d="M2400 3495 c-69 -7 -154 -20 -190 -29 -82 -21 -183 -67 -172 -78 5
-5 48 -4 98 3 191 25 484 9 819 -45 389 -63 515 -72 515 -36 0 20 -75 92 -114
111 -80 36 -173 60 -291 74 -145 17 -488 17 -665 0z"/>
<path d="M2270 2923 c-65 -7 -68 -13 -19 -38 62 -32 385 -104 564 -125 55 -7
129 -16 165 -21 36 -4 111 -8 168 -8 91 -1 108 2 154 25 86 44 76 47 -297 94
-38 5 -108 16 -155 24 -212 36 -492 60 -580 49z"/>
</g>
</svg>
